<svg width="1584" height="396" viewBox="0 0 1584 396" fill="none" xmlns="http://www.w3.org/2000/svg">
<g clip-path="url(#clip0_1115_268)">
<path d="M1584 0H0V396H1584V0Z" fill="#121214"/>
<circle cx="1582.5" cy="197.5" r="709.5" fill="#161618"/>
<circle cx="1582.5" cy="197.5" r="509.072" fill="#18181B"/>
<circle cx="1582.5" cy="197.5" r="220.219" fill="#1B1B1E"/>
<path d="M1482.48 360.421C1482.01 360.421 1481.61 360.801 1481.61 361.28V363.098V364.916H1482.48V363.098V361.28H1483.52H1484.56V360.421H1483.52H1482.48Z" fill="#E1E1E6"/>
<path d="M1489.76 362.66V361.272C1489.76 360.801 1489.38 360.413 1488.89 360.413H1487.48H1486.07C1485.59 360.413 1485.2 360.793 1485.2 361.272V362.66V364.048C1485.2 364.519 1485.59 364.908 1486.07 364.908H1487.48H1488.89C1489.37 364.908 1489.76 364.528 1489.76 364.048V362.66ZM1488.89 362.66V364.048H1487.48H1486.07V362.66V361.272H1487.48H1488.89V362.66Z" fill="#E1E1E6"/>
<path d="M1491.51 360.421C1491.03 360.421 1490.63 360.801 1490.63 361.28V362.668V364.057C1490.63 364.527 1491.02 364.916 1491.51 364.916L1494.57 364.874V364.057H1491.51V362.668V361.28H1494.57V360.462L1491.51 360.421Z" fill="#E1E1E6"/>
<path d="M1499.57 360.421H1498.39L1496.66 362.23H1496.32V360.421H1495.45V362.66V364.908H1496.32V363.09H1496.75H1496.82L1498.62 364.908H1499.81L1497.51 362.561L1499.57 360.421Z" fill="#E1E1E6"/>
<path d="M1500.87 364.048V363.09L1504.56 363.049V362.231V361.272C1504.56 360.801 1504.17 360.413 1503.69 360.413H1502.28H1500.87C1500.39 360.413 1500 360.793 1500 361.272V362.66V364.048C1500 364.519 1500.38 364.908 1500.87 364.908L1504.56 364.866V364.048H1500.87ZM1500.87 361.272H1502.28H1503.69V362.231H1502.71H1500.87V361.272Z" fill="#E1E1E6"/>
<path d="M1506.75 359.107H1506.41L1505.88 359.76V360.413H1505.21V361.272L1505.88 361.264V364.048C1505.88 364.519 1506.26 364.908 1506.75 364.908L1508.16 364.866V364.048H1506.75V361.256L1508.28 361.231V360.413H1506.75V359.107Z" fill="#E1E1E6"/>
<path d="M1512.88 363.09C1512.88 362.619 1512.49 362.231 1512 362.231H1510.91H1509.81V361.272H1512.88V360.454L1509.81 360.413C1509.33 360.413 1508.94 360.793 1508.94 361.272V362.231C1508.94 362.702 1509.32 363.09 1509.81 363.09H1510.91H1512V364.048H1508.94V364.866L1512 364.908C1512.48 364.908 1512.88 364.528 1512.88 364.048V363.09Z" fill="#E1E1E6"/>
<path d="M1517.43 360.421H1516.02H1514.61C1514.13 360.421 1513.74 360.801 1513.74 361.28V362.668V364.057C1513.74 364.527 1514.13 364.916 1514.61 364.916L1518.3 364.874V364.057H1514.61V363.098L1518.3 363.057V362.239V361.28C1518.3 360.801 1517.92 360.421 1517.43 360.421ZM1517.43 362.23H1514.61V361.272H1516.02H1517.43V362.23Z" fill="#E1E1E6"/>
<path d="M1522.86 360.421L1519.17 360.462V361.28H1522.86V362.239L1519.17 362.28V363.098V364.057C1519.17 364.527 1519.56 364.916 1520.05 364.916H1521.45H1522.86C1523.34 364.916 1523.73 364.536 1523.73 364.057V362.668V361.28C1523.73 360.801 1523.34 360.421 1522.86 360.421ZM1522.86 364.048H1521.45H1520.05V363.09H1522.86V364.048Z" fill="#E1E1E6"/>
<path d="M1525.92 361.256L1527.45 361.231V360.413H1525.92V359.099H1525.58L1525.04 359.752V360.404H1524.38V361.264L1525.04 361.256V364.04C1525.04 364.511 1525.43 364.899 1525.92 364.899L1527.32 364.858V364.04H1525.92V361.256Z" fill="#E1E1E6"/>
<path d="M1479.31 357.479L1477.89 357.273C1477.85 357.265 1477.81 357.281 1477.79 357.298L1477.18 358.074C1477.14 358.124 1477.13 358.19 1477.15 358.248C1477.17 358.306 1477.12 358.355 1477.06 358.347L1476.56 358.24C1476.49 358.223 1476.41 358.248 1476.35 358.314L1474.39 360.793C1474.36 360.842 1474.29 360.859 1474.23 360.834L1473.49 360.504C1473.42 360.47 1473.34 360.479 1473.29 360.52L1472.91 360.776C1472.85 360.817 1472.77 360.826 1472.7 360.793L1472.51 360.702C1472.4 360.644 1472.25 360.71 1472.22 360.834L1472.09 361.421C1472.05 361.561 1472.11 361.702 1472.24 361.776L1472.52 361.95L1473.44 362.503L1473.88 362.776C1474.01 362.85 1474.17 362.834 1474.28 362.743L1475.02 362.098C1475.08 362.049 1475.17 362.032 1475.24 362.073L1475.47 362.189C1475.54 362.23 1475.63 362.214 1475.69 362.156L1476.07 361.809C1476.13 361.751 1476.22 361.743 1476.29 361.776L1476.85 362.032C1476.93 362.073 1477.03 362.049 1477.09 361.974L1477.35 361.644L1479.32 359.157C1479.42 359.041 1479.36 358.868 1479.21 358.835L1478.77 358.735C1478.68 358.719 1478.64 358.603 1478.7 358.537L1479.38 357.703C1479.45 357.603 1479.41 357.496 1479.31 357.479Z" fill="#8257E6"/>
<path d="M1472.81 362.486C1472.77 362.462 1472.72 362.503 1472.74 362.544L1472.95 363.09C1472.97 363.131 1472.97 363.172 1472.96 363.214L1472.77 363.924C1472.77 363.974 1472.78 364.023 1472.82 364.048L1473.34 364.453C1473.4 364.486 1473.46 364.486 1473.5 364.445L1474.06 363.965C1474.09 363.941 1474.13 363.924 1474.17 363.916L1474.8 363.85C1474.84 363.841 1474.85 363.784 1474.81 363.759L1472.81 362.486Z" fill="#8257E6"/>
<path d="M1472.62 364.321C1472.59 364.296 1472.54 364.288 1472.5 364.305L1472.05 364.519C1472.03 364.528 1472.01 364.552 1471.99 364.577L1471.05 366.882C1471.05 366.891 1471.05 366.891 1471.05 366.899C1471.06 366.907 1471.06 366.915 1471.08 366.915L1471.3 366.833C1471.31 366.833 1471.32 366.833 1471.32 366.833C1471.33 366.841 1471.34 366.858 1471.33 366.866L1470.65 367.965C1470.64 367.99 1470.67 368.014 1470.69 367.99L1473.14 365.56C1473.17 365.536 1473.18 365.511 1473.19 365.478L1473.24 364.85C1473.24 364.808 1473.22 364.775 1473.19 364.751L1472.62 364.321Z" fill="#8257E6"/>
<g clip-path="url(#clip1_1115_268)">
<path d="M1441.47 326.267C1441.47 325.545 1441.71 324.949 1442.23 324.477C1442.74 324.005 1443.44 323.769 1444.32 323.769C1445.18 323.769 1445.88 324.005 1446.39 324.477C1446.91 324.949 1447.17 325.545 1447.17 326.267C1447.17 327.002 1446.91 327.599 1446.38 328.071C1445.85 328.543 1445.17 328.779 1444.3 328.779C1443.44 328.779 1442.75 328.543 1442.23 328.071C1441.73 327.613 1441.47 327.002 1441.47 326.267ZM1446.88 349.039H1441.77V330.943H1446.88V349.039Z" fill="white"/>
<path d="M1449.79 339.864C1449.79 337.089 1450.49 334.854 1451.88 333.162C1453.27 331.469 1455.14 330.622 1457.51 330.622C1459.6 330.622 1461.22 331.302 1462.39 332.662L1462.6 330.955H1467.22V348.44C1467.22 350.022 1466.84 351.396 1466.08 352.575C1465.32 353.741 1464.25 354.643 1462.88 355.253C1461.5 355.864 1459.89 356.169 1458.05 356.169C1456.65 356.169 1455.29 355.906 1453.97 355.378C1452.64 354.851 1451.64 354.171 1450.96 353.325L1453.21 350.383C1454.48 351.729 1456.02 352.409 1457.83 352.409C1459.18 352.409 1460.23 352.062 1460.99 351.382C1461.74 350.702 1462.12 349.73 1462.12 348.468V347.496C1460.95 348.759 1459.4 349.384 1457.48 349.384C1455.18 349.384 1453.34 348.537 1451.92 346.83C1450.5 345.137 1449.8 342.875 1449.8 340.072V339.864H1449.79ZM1454.88 340.211C1454.88 341.848 1455.23 343.139 1455.92 344.069C1456.6 344.998 1457.55 345.47 1458.77 345.47C1460.32 345.47 1461.43 344.915 1462.1 343.819V336.201C1461.41 335.09 1460.32 334.549 1458.81 334.549C1457.58 334.549 1456.63 335.021 1455.93 335.979C1455.23 336.908 1454.88 338.338 1454.88 340.211Z" fill="white"/>
<path d="M1475.27 330.941L1475.43 333.037C1476.79 331.427 1478.61 330.608 1480.91 330.608C1482.93 330.608 1484.44 331.177 1485.42 332.301C1486.4 333.425 1486.91 335.104 1486.94 337.352V349.037H1481.85V337.463C1481.85 336.437 1481.61 335.701 1481.15 335.229C1480.68 334.771 1479.89 334.535 1478.81 334.535C1477.37 334.535 1476.3 335.118 1475.59 336.27V349.023H1470.5V330.941H1475.27Z" fill="white"/>
<path d="M1490.21 326.264C1490.21 325.543 1490.46 324.946 1490.98 324.474C1491.49 324.002 1492.19 323.766 1493.07 323.766C1493.93 323.766 1494.63 324.002 1495.14 324.474C1495.65 324.946 1495.92 325.543 1495.92 326.264C1495.92 327 1495.65 327.596 1495.13 328.068C1494.6 328.54 1493.91 328.776 1493.05 328.776C1492.19 328.776 1491.5 328.54 1490.98 328.068C1490.48 327.61 1490.21 327 1490.21 326.264ZM1495.63 349.036H1490.52V330.941H1495.63V349.036Z" fill="white"/>
<path d="M1505.38 326.5V330.941H1508.64V334.479H1505.38V343.513C1505.38 344.179 1505.51 344.665 1505.79 344.956C1506.06 345.248 1506.58 345.387 1507.34 345.387C1507.91 345.387 1508.41 345.345 1508.84 345.276V348.939C1507.84 349.23 1506.8 349.369 1505.75 349.369C1502.18 349.369 1500.35 347.662 1500.29 344.235V334.493H1497.51V330.955H1500.29V326.514H1505.38V326.5Z" fill="white"/>
<path d="M1519.7 349.37C1516.91 349.37 1514.63 348.551 1512.87 346.928C1511.12 345.304 1510.24 343.139 1510.24 340.419V339.947C1510.24 338.13 1510.6 336.506 1511.35 335.077C1512.1 333.647 1513.13 332.537 1514.49 331.76C1515.85 330.983 1517.4 330.594 1519.13 330.594C1521.73 330.594 1523.8 331.372 1525.29 332.94C1526.78 334.494 1527.54 336.714 1527.54 339.573V341.543H1515.4C1515.56 342.723 1516.06 343.666 1516.89 344.388C1517.73 345.096 1518.76 345.457 1520.04 345.457C1522 345.457 1523.53 344.777 1524.63 343.431L1527.13 346.095C1526.37 347.122 1525.33 347.927 1524.03 348.496C1522.74 349.078 1521.29 349.37 1519.7 349.37ZM1519.13 334.508C1518.12 334.508 1517.3 334.827 1516.67 335.479C1516.04 336.131 1515.65 337.061 1515.46 338.268H1522.54V337.88C1522.51 336.811 1522.22 335.979 1521.62 335.382C1521.03 334.799 1520.2 334.508 1519.13 334.508Z" fill="white"/>
<path opacity="0.5" d="M1415.12 315.34L1402.12 361.398C1402.06 361.607 1401.79 361.669 1401.64 361.523L1392.93 353.265L1399.46 330.184C1399.52 329.975 1399.33 329.787 1399.1 329.85L1374.78 336.038L1366.12 327.822C1365.96 327.675 1366.03 327.424 1366.25 327.362L1414.77 315.006C1414.99 314.964 1415.19 315.152 1415.12 315.34Z" fill="#00B37E"/>
<path opacity="0.5" d="M1392.93 353.265L1389.58 365.182C1389.52 365.391 1389.25 365.453 1389.1 365.307L1362.08 339.697C1361.93 339.55 1362 339.299 1362.22 339.237L1374.78 336.038L1392.93 353.265Z" fill="#00B37E"/>
<path d="M1399.46 330.184L1392.93 353.265L1374.78 336.038L1399.1 329.849C1399.32 329.787 1399.52 329.975 1399.46 330.184Z" fill="#00B37E"/>
</g>
<path d="M914.125 111C913.197 111 912.307 111.369 911.65 112.025C910.994 112.682 910.625 113.572 910.625 114.5V121.5C910.625 122.428 910.994 123.318 911.65 123.975C912.307 124.631 913.197 125 914.125 125H919.375V134.266C881.512 138.624 852 170.866 852 209.875C852 251.845 886.155 286 928.125 286C970.095 286 1004.25 251.845 1004.25 209.875C1004.26 195.51 1000.18 181.438 992.49 169.307L999.906 163.302L1003.21 167.383C1003.5 167.741 1003.86 168.038 1004.26 168.257C1004.66 168.477 1005.11 168.615 1005.56 168.663C1006.02 168.711 1006.48 168.669 1006.92 168.538C1007.37 168.408 1007.78 168.192 1008.13 167.903L1013.58 163.496C1014.3 162.912 1014.76 162.065 1014.85 161.142C1014.95 160.22 1014.67 159.296 1014.09 158.576L996.471 136.812C996.182 136.455 995.826 136.158 995.422 135.939C995.018 135.719 994.575 135.581 994.118 135.533C993.66 135.485 993.198 135.527 992.757 135.657C992.317 135.788 991.906 136.004 991.548 136.293L986.106 140.699C985.386 141.284 984.927 142.13 984.83 143.053C984.734 143.976 985.008 144.899 985.591 145.62L988.897 149.701L981.512 155.676C969.723 144.059 954.17 136.261 936.875 134.27V125H942.125C943.053 125 943.943 124.631 944.6 123.975C945.256 123.318 945.625 122.428 945.625 121.5V114.5C945.625 113.572 945.256 112.682 944.6 112.025C943.943 111.369 943.053 111 942.125 111H914.125ZM928.125 146C963.475 146 992 174.525 992 209.875C992 245.225 963.475 273.75 928.125 273.75C892.775 273.75 864.25 245.225 864.25 209.875C864.25 174.525 892.775 146 928.125 146ZM928.128 159.025L928.125 209.875L968.785 240.407C974.456 232.854 977.912 223.871 978.764 214.464C979.617 205.057 977.832 195.599 973.611 187.149C969.39 178.7 962.899 171.594 954.865 166.627C946.832 161.659 937.574 159.028 928.128 159.027V159.025Z" fill="#00B37E"/>
<path d="M573.92 99H587.12V183H573.92V99ZM615.726 184.2C609.326 184.2 604.446 182.4 601.086 178.8C597.726 175.12 596.046 169.88 596.046 163.08V118.92C596.046 112.12 597.726 106.92 601.086 103.32C604.446 99.64 609.326 97.8 615.726 97.8C622.126 97.8 627.006 99.64 630.366 103.32C633.726 106.92 635.406 112.12 635.406 118.92V126.12H622.926V118.08C622.926 112.56 620.646 109.8 616.086 109.8C611.526 109.8 609.246 112.56 609.246 118.08V164.04C609.246 169.48 611.526 172.2 616.086 172.2C620.646 172.2 622.926 169.48 622.926 164.04V147.6H616.326V135.6H635.406V163.08C635.406 169.88 633.726 175.12 630.366 178.8C627.006 182.4 622.126 184.2 615.726 184.2ZM643.881 99H660.441L673.281 149.28H673.521V99H685.281V183H671.721L655.881 121.68H655.641V183H643.881V99ZM695.092 99H708.292V183H695.092V99ZM728.498 111H714.698V99H755.498V111H741.698V183H728.498V111ZM761.889 99H797.889V111H775.089V133.2H793.209V145.2H775.089V171H797.889V183H761.889V99ZM584.24 213H570.44V201H611.24V213H597.44V285H584.24V213ZM617.631 201H630.831V285H617.631V201ZM640.717 201H659.557L667.957 261.12H668.197L676.597 201H695.437V285H682.957V221.4H682.717L673.117 285H662.077L652.477 221.4H652.237V285H640.717V201ZM705.287 201H741.287V213H718.487V235.2H736.607V247.2H718.487V273H741.287V285H705.287V201ZM748.881 201H768.441C775.241 201 780.201 202.6 783.321 205.8C786.441 208.92 788.001 213.76 788.001 220.32V225.48C788.001 234.2 785.121 239.72 779.361 242.04V242.28C782.561 243.24 784.801 245.2 786.081 248.16C787.441 251.12 788.121 255.08 788.121 260.04V274.8C788.121 277.2 788.201 279.16 788.361 280.68C788.521 282.12 788.921 283.56 789.561 285H776.121C775.641 283.64 775.321 282.36 775.161 281.16C775.001 279.96 774.921 277.8 774.921 274.68V259.32C774.921 255.48 774.281 252.8 773.001 251.28C771.801 249.76 769.681 249 766.641 249H762.081V285H748.881V201ZM766.881 237C769.521 237 771.481 236.32 772.761 234.96C774.121 233.6 774.801 231.32 774.801 228.12V221.64C774.801 218.6 774.241 216.4 773.121 215.04C772.081 213.68 770.401 213 768.081 213H762.081V237H766.881Z" fill="white"/>
</g>
<defs>
<clipPath id="clip0_1115_268">
<rect width="1584" height="396" fill="white"/>
</clipPath>
<clipPath id="clip1_1115_268">
<rect width="165.541" height="51.1871" fill="white" transform="translate(1362 315)"/>
</clipPath>
</defs>
</svg>
